PathFileType	4	(X/Y/Z)	D:\Share\Shared_Data\Ergonomics\Sit To Stand Pertubation\S3\Unperturbed.trc
DataRate	CameraRate	NumFrames	NumMarkers	Units	OrigDataRate	OrigDataStartFrame	OrigNumFrames	
100	100	19	18	m	100	2239	211
Frame#	Time	R_Thigh			R_ASIS			R_Pelvis			V_Sacral			L_Pelvis			L_ASIS			Clavical			R_Acromium			L_Acromium			Sternum			Torso			R_Thigh_Med			R_Thigh_Lat			R_Shank_Med			R_Shank_Lat			R_Shank			R_Heel			R_Toe			
		X1	Y1	Z1	X2	Y2	Z2	X3	Y3	Z3	X4	Y4	Z4	X5	Y5	Z5	X6	Y6	Z6	X7	Y7	Z7	X8	Y8	Z8	X9	Y9	Z9	X10	Y10	Z10	X11	Y11	Z11	X12	Y12	Z12	X13	Y13	Z13	X14	Y14	Z14	X15	Y15	Z15	X16	Y16	Z16	X17	Y17	Z17	X18	Y18	Z18	

2239	22.38	0.37240067	0.66987488	0.10734715	0.33753018	0.9382962	0.1257755	0.22750096	0.95418414	0.17516678	0.13319333	0.99226733	-0.019560568	0.25039017	0.96606354	-0.21659886	0.34770923	0.93248895	-0.15430083	0.38709259	1.3642947	-0.017602552	0.33612787	1.4298214	0.14498962	0.36033524	1.4254996	-0.17272366	0.40279678	1.2847281	-0.013458228	0.39594107	1.3496749	-0.082533669	0.34814258	0.46447559	0.054149715	0.3093064	0.45766275	0.15267462	0.25737546	0.10571663	0.092933876	0.23459279	0.10041858	0.17208972	0.24259569	0.28671255	0.17304907	0.17981552	0.051167107	0.1215537	0.39824948	0.051803352	0.13757045
2240	22.39	0.37475259	0.66932068	0.1070762	0.34262711	0.94036047	0.12611794	0.23213644	0.95520868	0.17515694	0.13746248	0.99238995	-0.019255505	0.25469687	0.96732257	-0.21641495	0.35264276	0.93467816	-0.15428957	0.3859736	1.3673695	-0.017556944	0.3333595	1.432036	0.14507051	0.35839771	1.4283556	-0.17268863	0.40277036	1.2880728	-0.013431274	0.39507642	1.3530127	-0.082571533	0.34641376	0.4640972	0.051987041	0.30721661	0.45800806	0.15076073	0.25742416	0.10561324	0.092852921	0.23457304	0.10051949	0.17196411	0.24103001	0.28708698	0.17177858	0.17981006	0.051147179	0.1215322	0.39825488	0.051901543	0.13760561
2241	22.4	0.37706549	0.66876642	0.10695087	0.34764764	0.94217297	0.12651392	0.23672147	0.95596124	0.17518886	0.14166089	0.99225232	-0.018916986	0.25888211	0.96824634	-0.21614284	0.35752802	0.93652991	-0.15424939	0.38491382	1.3699882	-0.017508074	0.33063306	1.4338101	0.14515324	0.35646957	1.4307632	-0.17264484	0.40276187	1.2909845	-0.013380709	0.39424417	1.3558977	-0.082602829	0.34471448	0.463733	0.049867832	0.30515344	0.45831006	0.14884602	0.25753534	0.10552402	0.092735413	0.23452107	0.10061477	0.17181064	0.23948647	0.28742789	0.17053618	0.17980392	0.051127426	0.12150417	0.39827109	0.052037205	0.13764001
2242	22.41	0.37933954	0.66818787	0.10695016	0.35258585	0.94372961	0.12694611	0.24126254	0.95646259	0.17526042	0.14578571	0.99186096	-0.018558159	0.26293048	0.96881702	-0.21581618	0.36231729	0.93801855	-0.15420486	0.38391904	1.3721559	-0.017454641	0.32796695	1.4351495	0.1452347	0.35456555	1.4327208	-0.17257944	0.4027807	1.2934709	-0.013305399	0.39344824	1.3583329	-0.082623413	0.34298221	0.4633765	0.047836006	0.30312662	0.45856894	0.14698041	0.25765872	0.10544681	0.092586632	0.23443748	0.10069321	0.17163754	0.23798384	0.28773178	0.16936769	0.17979677	0.051102795	0.12146899	0.39829987	0.052195496	0.13767024
2243	22.42	0.38157892	0.66754919	0.10703616	0.3574375	0.94502466	0.12739202	0.24576408	0.95673572	0.17536519	0.14983432	0.99122736	-0.018190062	0.26682822	0.9690285	-0.21547716	0.36695645	0.93912573	-0.15418468	0.38299164	1.3738813	-0.017395216	0.32537613	1.4360621	0.14531427	0.35269662	1.4342314	-0.17248431	0.40283423	1.2955392	-0.013205552	0.39269061	1.3603235	-0.082630814	0.34115897	0.46301758	0.045931679	0.30115851	0.45878214	0.14521753	0.25775531	0.10537801	0.092414543	0.23433481	0.10074644	0.1714539	0.23655096	0.28799124	0.16832291	0.17978705	0.051068268	0.1214287	0.39834268	0.052340725	0.1376859
2244	22.43	0.3837883	0.66681049	0.10715601	0.36220013	0.94605286	0.12782599	0.25022873	0.9568045	0.17549496	0.15380296	0.99036926	-0.017821045	0.27056812	0.96889227	-0.21516505	0.37140762	0.93984723	-0.15421509	0.38213177	1.3751777	-0.017328632	0.32287158	1.4365576	0.14539548	0.35086969	1.4353044	-0.17235985	0.40292715	1.297198	-0.013082517	0.39197034	1.3618784	-0.082624969	0.33920596	0.46264355	0.044182999	0.29928812	0.45894516	0.14360944	0.2578045	0.10531388	0.092230637	0.23423369	0.10077061	0.17127052	0.23522597	0.28819635	0.16744971	0.17977213	0.051019245	0.12138734	0.39839941	0.052430382	0.1376748
2245	22.44	0.38596857	0.66594427	0.10724921	0.3668728	0.94681189	0.12822168	0.25465781	0.95669293	0.17564188	0.15768579	0.98931458	-0.017455576	0.27414951	0.96844	-0.2149124	0.37564807	0.94019476	-0.15431563	0.3813381	1.3760646	-0.017254389	0.32046112	1.4366514	0.14548581	0.34908908	1.4359558	-0.17221581	0.40306064	1.2984597	-0.01293836	0.39128424	1.3630121	-0.082607742	0.33711588	0.4622428	0.042603958	0.29757172	0.45905212	0.14220244	0.25779788	0.10525169	0.092049767	0.23415178	0.10076484	0.17110158	0.23405472	0.28833694	0.16678748	0.17974937	0.050952671	0.1213503	0.39846826	0.052428318	0.1376284
2246	22.45	0.388117	0.66494659	0.10725368	0.37145453	0.94730536	0.12855464	0.25905167	0.9564256	0.1758	0.16147496	0.98810309	-0.017093254	0.27757492	0.96772412	-0.21474405	0.37965918	0.94019714	-0.15449687	0.38060782	1.3765675	-0.017173624	0.31814871	1.4363647	0.14559534	0.34735748	1.4362107	-0.17206972	0.40323172	1.2993425	-0.012775614	0.39062912	1.3637462	-0.082581894	0.33491666	0.46180713	0.041197777	0.29608057	0.45909644	0.14103336	0.25773096	0.10519026	0.091886436	0.23409891	0.10072858	0.17096312	0.23308936	0.28840509	0.16636115	0.17971732	0.050869148	0.12132431	0.39854431	0.052328465	0.13755127
2247	22.46	0.3902319	0.66383887	0.10711053	0.37594315	0.94754449	0.12880428	0.26340933	0.95602924	0.17596739	0.16516054	0.98678717	-0.016728838	0.28084689	0.9668147	-0.21467311	0.3834223	0.93990057	-0.15475995	0.37993491	1.3767217	-0.017090483	0.31593277	1.4357297	0.14573358	0.34567429	1.436105	-0.17194496	0.4034324	1.2998716	-0.012597739	0.39000287	1.3641112	-0.082550186	0.33267017	0.46133405	0.039960598	0.29489563	0.45907239	0.14012514	0.25759933	0.10512937	0.091750053	0.23408047	0.10066061	0.17086797	0.23238498	0.28839822	0.16617734	0.17967661	0.050775204	0.12131749	0.39861972	0.052169579	0.13746637
2248	22.47	0.39231891	0.66266437	0.10677051	0.38033258	0.94755151	0.12895462	0.26772763	0.95553345	0.17614764	0.16873117	0.98542883	-0.016352793	0.28396564	0.96579358	-0.21469647	0.38692233	0.93936804	-0.15509781	0.37930978	1.3765734	-0.017012466	0.31380615	1.4347885	0.14590675	0.34403574	1.435686	-0.17186742	0.40364972	1.3000823	-0.012410286	0.38940509	1.3641475	-0.082514999	0.33047202	0.46083066	0.038882492	0.29410025	0.45897757	0.13948199	0.25739737	0.10506842	0.091641388	0.23410048	0.10055933	0.17082065	0.2319944	0.28832135	0.16622212	0.17963065	0.050685062	0.12133912	0.39868863	0.051999798	0.1373987
2249	22.48	0.39439563	0.6614823	0.10620106	0.38461118	0.94736072	0.12899495	0.272	0.95497131	0.17634966	0.17217587	0.98409442	-0.015951592	0.28692725	0.96474603	-0.21479225	0.39015607	0.93867902	-0.15549756	0.37871957	1.3761797	-0.016949535	0.31175806	1.4335957	0.1461163	0.34243552	1.4350129	-0.17186026	0.40386725	1.3000203	-0.012221724	0.38883685	1.3639059	-0.082479424	0.32844858	0.46031644	0.037946728	0.29376941	0.45881482	0.13908556	0.25712283	0.1050057	0.09155085	0.23416232	0.10042312	0.1708141	0.23196153	0.28818814	0.16646085	0.179586	0.050621868	0.1213996	0.39875348	0.05182346	0.13735117
2250	22.49	0.39649219	0.66036047	0.10539224	0.38876163	0.9470191	0.12892062	0.27621533	0.95437762	0.17658466	0.17548642	0.98284644	-0.015508403	0.28972473	0.96375012	-0.21492099	0.39314557	0.93792432	-0.15594235	0.3781503	1.3756083	-0.016912073	0.30977838	1.4322159	0.14635823	0.34086697	1.4341547	-0.17193825	0.40406934	1.2997407	-0.012042998	0.38830042	1.363447	-0.082448418	0.32674368	0.45982175	0.037130695	0.29395557	0.45859229	0.13889662	0.25678442	0.10493816	0.091460739	0.23426724	0.10025069	0.17082956	0.23231226	0.28801938	0.16684032	0.17955177	0.050618324	0.12151118	0.3988241	0.051604507	0.13730592
2251	22.5	0.39864728	0.65936554	0.10435921	0.39276328	0.94658496	0.1287346	0.2803577	0.95378625	0.17686145	0.17865891	0.98173273	-0.015005797	0.29235217	0.96286761	-0.21503279	0.395944	0.93719849	-0.15641232	0.37759113	1.3749314	-0.01690756	0.30786273	1.4307225	0.14662361	0.33932614	1.4331846	-0.17210411	0.40424588	1.2993074	-0.011885963	0.38779828	1.362838	-0.082428177	0.32549139	0.45938086	0.036409996	0.29467355	0.45832281	0.13886301	0.25641013	0.10486208	0.091353088	0.2344109	0.10004243	0.17084204	0.23304364	0.28783871	0.16729532	0.17953842	0.050715603	0.1216889	0.39890988	0.05132597	0.13724988
2252	22.51	0.40089932	0.65855096	0.10314072	0.39659659	0.94612299	0.12844954	0.28440588	0.95322632	0.17718098	0.18169382	0.98077771	-0.014431079	0.29480936	0.96213715	-0.21507977	0.39861856	0.93658612	-0.15688507	0.37703952	1.374219	-0.016937904	0.30601624	1.4291936	0.14689902	0.33781354	1.4321758	-0.1723477	0.4043949	1.298787	-0.011761566	0.38733066	1.3621475	-0.082424507	0.32477927	0.45902264	0.03576358	0.29589169	0.45802267	0.1389305	0.25605237	0.10477508	0.091219635	0.23458401	0.099804062	0.17082901	0.23411501	0.28766992	0.16775845	0.17955548	0.050958912	0.12195042	0.39901343	0.051030388	0.13719281
2253	22.52	0.40327307	0.65794659	0.10179424	0.40024774	0.94569812	0.12808946	0.28833411	0.95272064	0.17753368	0.18459546	0.97997784	-0.013782648	0.29710706	0.96157098	-0.21502853	0.40122189	0.93614716	-0.15733591	0.37650092	1.3735321	-0.016999271	0.30425607	1.4277063	0.14716753	0.33633646	1.4311942	-0.17264685	0.40452115	1.298244	-0.011678204	0.38689294	1.3614395	-0.082441566	0.32462421	0.45876395	0.035177052	0.29753195	0.45771161	0.13905	0.25578149	0.10467913	0.091066879	0.23477827	0.099551018	0.17077725	0.23544765	0.2875361	0.16817116	0.17960966	0.051388824	0.12231322	0.39913074	0.050796162	0.13715883
2254	22.53	0.40576855	0.65755261	0.10038967	0.40371072	0.94536688	0.12768999	0.29211365	0.952284	0.17790005	0.18737207	0.97930334	-0.013074797	0.29926987	0.96115613	-0.21486769	0.40378217	0.9359079	-0.1577379	0.37598495	1.3729166	-0.017084059	0.30261087	1.4263297	0.14741101	0.33490887	1.4302954	-0.17297032	0.40463297	1.2977334	-0.011640325	0.3864747	1.360769	-0.082481125	0.32497617	0.45860675	0.034644817	0.29947995	0.45741232	0.13918124	0.25566342	0.10458354	0.090913338	0.23498703	0.099313919	0.17068498	0.23693503	0.28745782	0.16849287	0.17970326	0.052027065	0.12278642	0.39925598	0.05067947	0.13716389
2255	22.54	0.40835797	0.65734241	0.099004669	0.40698572	0.94516992	0.12729536	0.29571603	0.95192377	0.17825575	0.19003665	0.97870667	-0.012338711	0.30133582	0.96086121	-0.21460945	0.40631259	0.93586359	-0.15806264	0.37550162	1.3724005	-0.01718309	0.30111737	1.4251206	0.14761255	0.33354922	1.42952	-0.17328255	0.40473944	1.2972991	-0.011647745	0.38606409	1.3601783	-0.08254129	0.3257421	0.4585397	0.034172714	0.30160242	0.45714868	0.13929642	0.25573399	0.10450435	0.090782036	0.23520107	0.099136177	0.17056104	0.23846272	0.28744989	0.16870587	0.17983298	0.05285537	0.12335507	0.39938586	0.050674595	0.13720132
2256	22.55	0.41099106	0.6572713	0.097721436	0.41007678	0.94512775	0.12695241	0.29911542	0.95164148	0.17857858	0.19260562	0.97813519	-0.011618017	0.30335187	0.96064526	-0.2142858	0.40882211	0.93598499	-0.15828329	0.37505887	1.3719948	-0.017287016	0.29981339	1.4241167	0.14775888	0.33227856	1.4288901	-0.17354921	0.40484845	1.2969701	-0.011696115	0.38565414	1.3596981	-0.082616379	0.32681311	0.45854269	0.033778107	0.30376782	0.45694165	0.13938345	0.25598698	0.10445786	0.090691132	0.23540805	0.099054451	0.17042036	0.23993059	0.28751791	0.16881534	0.17998959	0.053787125	0.12395573	0.3995202	0.050714573	0.13724342
2257	22.56	0.4136069	0.65728717	0.096622055	0.41298883	0.94523975	0.12670377	0.30229092	0.95143439	0.17885637	0.19509357	0.9775434	-0.010959296	0.30536612	0.9604679	-0.21394284	0.41131924	0.93622668	-0.15837943	0.37466223	1.3716965	-0.01738727	0.29872964	1.423335	0.14784398	0.33111743	1.4284093	-0.17374333	0.40496585	1.2967642	-0.011778266	0.38524548	1.3593473	-0.082699287	0.328086	0.45859293	0.033485001	0.30586432	0.45680466	0.13944635	0.25638052	0.10445406	0.090648552	0.23559705	0.099082497	0.17027937	0.2412693	0.28765707	0.16884404	0.18015889	0.054654095	0.12446233	0.39965988	0.050713131	0.13725836
